<?xml version="1.0" encoding="iso-8859-1"?>
<!-- Uploaded to: SVG Repo, www.svgrepo.com, Generator: SVG Repo Mixer Tools -->
<svg version="1.1" id="Layer_1" xmlns="http://www.w3.org/2000/svg" xmlns:xlink="http://www.w3.org/1999/xlink" 
	 viewBox="0 0 512 512" xml:space="preserve">
<rect x="64" y="396.8" style="fill:#6D7584;" width="384" height="51.2"/>
<path style="fill:#8CC0C5;" d="M64,345.6V115.2h384v230.4H64z"/>
<path style="fill:#A7B0C0;" d="M12.8,396.8V64h486.4v332.8H12.8z M76.8,115.2c-7.057,0-12.8,5.743-12.8,12.8v204.8
	c0,7.057,5.743,12.8,12.8,12.8h358.4c7.057,0,12.8-5.743,12.8-12.8V128c0-7.057-5.743-12.8-12.8-12.8H76.8z"/>
<g>
	<path style="fill:#573A32;" d="M486.4,51.2H25.6C11.46,51.2,0,62.66,0,76.8V384c0,14.14,11.46,25.6,25.6,25.6h25.6v25.6
		c0,14.14,11.46,25.6,25.6,25.6h358.4c14.14,0,25.6-11.46,25.6-25.6v-25.6h25.6c14.14,0,25.6-11.46,25.6-25.6V76.8
		C512,62.66,500.54,51.2,486.4,51.2z M435.2,435.2H76.8v-25.6h358.4V435.2z M486.4,384H25.6V76.8h460.8V384z"/>
	<path style="fill:#573A32;" d="M76.8,358.4h358.4c14.14,0,25.6-11.46,25.6-25.6V128c0-14.14-11.46-25.6-25.6-25.6H76.8
		c-14.14,0-25.6,11.46-25.6,25.6v204.8C51.2,346.94,62.66,358.4,76.8,358.4z M76.8,128h358.4v204.8H76.8V128z"/>
	<path style="fill:#573A32;" d="M348.399,222.404L307.2,273.903l-92.399-115.499c-4.873-6.05-15.121-6.05-20.002,0L147.447,217.6
		H102.4v25.6h51.2c3.891,0,7.561-1.775,10.001-4.804l41.199-51.499l92.399,115.499c2.441,3.029,6.11,4.804,10.001,4.804
		s7.561-1.775,10.001-4.804l47.351-59.204H409.6v-25.6h-51.2C354.509,217.6,350.839,219.375,348.399,222.404z"/>
</g>
</svg>