<?xml version="1.0" encoding="iso-8859-1"?>
<!-- Uploaded to: SVG Repo, www.svgrepo.com, Generator: SVG Repo Mixer Tools -->
<svg height="800px" width="800px" version="1.1" id="Layer_1" xmlns="http://www.w3.org/2000/svg" xmlns:xlink="http://www.w3.org/1999/xlink" 
	 viewBox="0 0 512 512" xml:space="preserve">
<path style="fill:#E9EBEF;" d="M255.996,396.8c-159.019,0-238.089-128.734-241.374-134.221L10.671,256l3.951-6.579
	C17.907,243.934,96.977,115.2,255.996,115.2S494.084,243.934,497.37,249.421l3.959,6.579l-3.951,6.579
	C494.084,268.066,415.014,396.8,255.996,396.8z M255.996,166.4c-49.408,0-89.6,40.192-89.6,89.6s40.192,89.6,89.6,89.6
	s89.6-40.192,89.6-89.6S305.404,166.4,255.996,166.4z"/>
<path style="fill:#6FB0B6;" d="M255.996,345.6c-49.408,0-89.6-40.192-89.6-89.6s40.192-89.6,89.6-89.6s89.6,40.192,89.6,89.6
	S305.404,345.6,255.996,345.6z M255.996,217.6c-21.171,0-38.4,17.229-38.4,38.4c0,21.171,17.229,38.4,38.4,38.4
	s38.4-17.229,38.4-38.4C294.396,234.829,277.167,217.6,255.996,217.6z"/>
<path style="fill:#538489;" d="M255.996,294.4c-21.171,0-38.4-17.229-38.4-38.4c0-21.171,17.229-38.4,38.4-38.4
	s38.4,17.229,38.4,38.4C294.396,277.171,277.167,294.4,255.996,294.4z"/>
<g>
	<path style="fill:#573A32;" d="M508.352,242.825c-3.448-5.726-86.17-140.425-252.356-140.425S7.087,237.099,3.648,242.825
		c-4.864,8.107-4.864,18.236,0,26.342C7.087,274.901,89.809,409.6,255.996,409.6s248.909-134.699,252.356-140.425
		C513.216,261.06,513.216,250.94,508.352,242.825z M255.996,384c-153.6,0-230.4-128-230.4-128s76.8-128,230.4-128
		s230.4,128,230.4,128S409.596,384,255.996,384z"/>
	<path style="fill:#573A32;" d="M255.996,153.6c-56.465,0-102.4,45.935-102.4,102.4s45.935,102.4,102.4,102.4
		s102.4-45.935,102.4-102.4S312.461,153.6,255.996,153.6z M255.996,332.8c-42.419,0-76.8-34.381-76.8-76.8s34.381-76.8,76.8-76.8
		s76.8,34.381,76.8,76.8S298.415,332.8,255.996,332.8z"/>
	<path style="fill:#573A32;" d="M255.996,204.8c-28.228,0-51.2,22.972-51.2,51.2c0,28.228,22.972,51.2,51.2,51.2
		s51.2-22.972,51.2-51.2C307.196,227.772,284.224,204.8,255.996,204.8z M255.996,281.6c-14.14,0-25.6-11.46-25.6-25.6
		c0-14.14,11.46-25.6,25.6-25.6s25.6,11.46,25.6,25.6C281.596,270.14,270.135,281.6,255.996,281.6z"/>
</g>
</svg>