<?xml version="1.0" encoding="iso-8859-1"?>
<!-- Uploaded to: SVG Repo, www.svgrepo.com, Generator: SVG Repo Mixer Tools -->
<svg height="800px" width="800px" version="1.1" id="Layer_1" xmlns="http://www.w3.org/2000/svg" xmlns:xlink="http://www.w3.org/1999/xlink" 
	 viewBox="0 0 512 512" xml:space="preserve">
<path style="fill:#BDC4D0;" d="M124.391,321.929L238.217,9.207l72.175,26.266l-26.069,71.612l-9.66-0.418
	c-13.875,0.29-25.062,11.657-25.062,25.6c0,7.501,3.422,14.643,9.395,19.593l6.938,5.751l-69.359,190.583L124.391,321.929z"/>
<circle style="fill:#FEDEA1;" cx="275.2" cy="132.267" r="25.6"/>
<polygon style="fill:#919CB0;" points="63.992,499.2 89.592,448 294.409,448 320.009,499.2 "/>
<path style="fill:#573A32;" d="M294.699,435.149c-0.102,0-0.196,0-0.299,0c-1.178,0.026-2.304,0.051-3.499,0.051H89.6
	c-4.847,0-9.276,2.748-11.452,7.074l-25.6,51.2c-1.971,3.977-1.775,8.678,0.546,12.45C55.45,509.696,59.571,512,64,512h256
	c4.429,0,8.55-2.304,10.871-6.076c2.347-3.772,2.551-8.474,0.572-12.45l-17.126-34.278C396.954,447.753,460.8,376.627,460.8,290.901
	c0-86.443-64.956-157.85-148.599-168.363c-2.074-7.893-6.579-14.72-12.689-19.763l18.526-50.893
	c2.321-6.383,2.014-13.423-0.853-19.575s-8.064-10.914-14.447-13.235l-48.111-17.51C251.733,0.495,248.772,0,245.871,0
	c-10.462,0-20.275,6.451-24.055,16.853L116.745,305.527c-2.321,6.383-2.014,13.423,0.853,19.575
	c2.867,6.153,8.064,10.914,14.447,13.235l48.111,17.51c2.893,1.05,5.845,1.553,8.755,1.553c10.462,0,20.275-6.451,24.055-16.853
	l61.841-169.924c0.128,0,0.256,0.043,0.384,0.043c15.548,0,28.868-9.284,34.901-22.571c70.519,9.421,125.107,69.777,125.107,142.805
	C435.2,369.203,372.523,433.126,294.699,435.149z M84.702,486.4l12.8-25.6h188.996l12.8,25.6H84.702z M275.2,145.067
	c-7.057,0-12.8-5.743-12.8-12.8c0-7.057,5.743-12.8,12.8-12.8s12.8,5.743,12.8,12.8C288,139.324,282.257,145.067,275.2,145.067z
	 M275.499,93.892c-0.102,0-0.196-0.026-0.299-0.026c-21.205,0-38.4,17.195-38.4,38.4c0,11.895,5.521,22.4,14.02,29.44
	l-61.909,170.086l-48.111-17.51L245.871,25.609l48.111,17.51L275.499,93.892z"/>
</svg>