<?xml version="1.0" encoding="iso-8859-1"?>
<!-- Uploaded to: SVG Repo, www.svgrepo.com, Generator: SVG Repo Mixer Tools -->
<svg height="800px" width="800px" version="1.1" id="Layer_1" xmlns="http://www.w3.org/2000/svg" xmlns:xlink="http://www.w3.org/1999/xlink" 
	 viewBox="0 0 512 512" xml:space="preserve">
<polygon style="fill:#6FB0B6;" points="192,499.2 192,366.857 77.38,433.024 13.38,322.176 128,256 13.38,189.824 77.38,78.976 
	192,145.143 192,12.8 320,12.8 320,145.143 434.62,78.976 498.62,189.824 384,256 498.62,322.176 434.62,433.024 320,366.857 
	320,499.2 "/>
<path style="fill:#573A32;" d="M6.135,320.23c-1.758,6.562-0.836,13.551,2.56,19.43l51.2,88.678
	c3.396,5.879,8.986,10.172,15.548,11.93c2.176,0.58,4.403,0.87,6.622,0.87c4.454,0,8.875-1.161,12.8-3.43l84.335-48.683V486.4
	c0,14.14,11.46,25.6,25.6,25.6h102.4c14.14,0,25.6-11.46,25.6-25.6v-97.374l84.335,48.691c3.925,2.27,8.346,3.43,12.8,3.43
	c2.219,0,4.446-0.29,6.622-0.87c6.562-1.758,12.151-6.05,15.548-11.93l51.2-88.678c3.396-5.879,4.318-12.868,2.56-19.43
	c-1.758-6.554-6.05-12.151-11.93-15.548L409.6,256l84.335-48.691c5.879-3.396,10.172-8.986,11.93-15.548
	c1.758-6.562,0.836-13.551-2.56-19.43l-51.2-88.678c-3.396-5.879-8.986-10.172-15.548-11.93c-2.176-0.58-4.403-0.87-6.622-0.87
	c-4.454,0-8.875,1.161-12.8,3.43L332.8,122.974V25.6c0-14.14-11.46-25.6-25.6-25.6H204.8c-14.14,0-25.6,11.46-25.6,25.6v97.374
	L94.865,74.283c-3.925-2.27-8.346-3.43-12.8-3.43c-2.219,0-4.446,0.29-6.622,0.87c-6.562,1.766-12.151,6.059-15.548,11.938
	l-51.2,88.678c-3.396,5.879-4.318,12.868-2.56,19.43c1.758,6.554,6.05,12.151,11.93,15.548L102.4,256l-84.335,48.691
	C12.186,308.087,7.893,313.677,6.135,320.23z M153.6,256L30.865,185.139l51.2-88.678L204.8,167.322V25.6h102.4v141.722
	l122.735-70.861l51.2,88.678L358.4,256l122.735,70.861l-51.2,88.678L307.2,344.678V486.4H204.8V344.678L82.065,415.539l-51.2-88.678
	L153.6,256z"/>
</svg>