<?xml version="1.0" encoding="iso-8859-1"?>
<!-- Uploaded to: SVG Repo, www.svgrepo.com, Generator: SVG Repo Mixer Tools -->
<svg height="800px" width="800px" version="1.1" id="Layer_1" xmlns="http://www.w3.org/2000/svg" xmlns:xlink="http://www.w3.org/1999/xlink" 
	 viewBox="0 0 512 512" xml:space="preserve">
<path style="fill:#FEDEA1;" d="M255.996,268.8c-80.486,0-158.891-28.322-220.766-79.761L35.196,166.4h441.6l-0.034,22.639
	C414.886,240.478,336.482,268.8,255.996,268.8z"/>
<g>
	<path style="fill:#573A32;" d="M113.984,91.477c5.709,4.224,13.722,2.927,17.886-2.773C160.73,49.203,207.134,25.6,255.996,25.6
		c66.731,0,123.486,42.837,144.64,102.4h27.017C405.551,54.076,337.011,0,255.996,0c-57.003,0-111.121,27.529-144.802,73.6
		C107.029,79.3,108.267,87.322,113.984,91.477z"/>
	<path style="fill:#573A32;" d="M492.651,170.496c-3.669-10.146-13.295-16.896-24.073-16.896H43.422
		c-10.786,0-20.412,6.758-24.073,16.896c-3.661,10.138-0.58,21.495,7.714,28.382c60.894,50.628,137.276,79.334,216.252,82.159
		c-0.017,0.205-0.119,0.367-0.119,0.563v51.2h-12.8c-35.285,0-64,28.698-64,64s28.715,64,64,64h12.8v25.6h-64
		c-7.074,0-12.8,5.726-12.8,12.8c0,7.074,5.726,12.8,12.8,12.8h153.6c7.074,0,12.8-5.726,12.8-12.8c0-7.074-5.726-12.8-12.8-12.8
		h-64v-25.6h12.8c7.074,0,12.8-5.726,12.8-12.8s-5.726-12.8-12.8-12.8h-12.8v-77.628c57.711-4.139,107.964-35.43,137.702-81.459
		c-15.283,6.477-31.036,11.827-47.061,16.307c-24.329,22.246-55.919,36.207-90.65,39.159V281.6c0-0.196-0.102-0.358-0.111-0.555
		c78.985-2.825,155.358-31.531,216.26-82.159C493.231,191.991,496.311,180.642,492.651,170.496z M243.196,435.2h-12.8
		c-21.171,0-38.4-17.229-38.4-38.4s17.229-38.4,38.4-38.4h12.8V435.2z M255.996,256c-80.845,0-154.914-28.868-212.574-76.8h425.156
		C410.91,227.132,336.841,256,255.996,256z"/>
</g>
</svg>