<?xml version="1.0" encoding="iso-8859-1"?>
<!-- Uploaded to: SVG Repo, www.svgrepo.com, Generator: SVG Repo Mixer Tools -->
<svg height="800px" width="800px" version="1.1" id="Layer_1" xmlns="http://www.w3.org/2000/svg" xmlns:xlink="http://www.w3.org/1999/xlink" 
	 viewBox="0 0 512 512" xml:space="preserve">
<polygon style="fill:#E9EBEF;" points="230.349,190.771 230.349,152.235 191.812,152.235 191.812,100.932 230.349,100.932 
	230.349,62.396 281.651,62.396 281.651,100.932 320.188,100.932 320.188,152.235 281.651,152.235 281.651,190.771 "/>
<path style="fill:#FFE7E5;" d="M101.342,363.187c-8.166-26.274-12.305-54.007-12.305-82.432v-12.8h12.8
	c1.348,0,2.679-0.205,3.959-0.623c47.633-15.394,98.176-23.194,150.204-23.194s102.571,7.799,150.212,23.185
	c1.271,0.418,2.611,0.623,3.959,0.623h12.8v12.8c0,28.399-4.139,56.124-12.297,82.389l-3.695,11.878l-11.972-3.354
	c-45.653-12.74-92.408-19.208-139.008-19.208c-46.549,0-93.321,6.485-138.982,19.26l-11.981,3.354L101.342,363.187z"/>
<path style="fill:#6FB0B6;" d="M406.229,267.238c-47.642-15.386-98.176-23.185-150.229-23.185s-102.588,7.799-150.229,23.194
	l-16.734,5.402V40.183l8.866-2.867C148.105,21.111,201.301,12.894,256,12.894s107.896,8.218,158.097,24.422l8.866,2.867V272.64
	L406.229,267.238z M204.612,100.838c-7.108,0-12.894,5.786-12.894,12.894v25.702c0,7.108,5.786,12.894,12.894,12.894h25.651v25.651
	c0,7.108,5.786,12.894,12.894,12.894h25.702c7.108,0,12.894-5.786,12.894-12.894v-25.651h25.651c7.108,0,12.894-5.786,12.894-12.894
	v-25.702c0-7.108-5.786-12.894-12.894-12.894h-25.651V75.196c0-7.108-5.786-12.894-12.894-12.894h-25.702
	c-7.108,0-12.894,5.786-12.894,12.894v25.651h-25.651V100.838z"/>
<path style="fill:#8CC0C5;" d="M256,499.106c-59.93,0-115.541-42.359-145.143-110.541l-5.871-13.534l14.225-3.908
	c44.894-12.331,90.914-18.586,136.789-18.586c45.773,0,91.793,6.263,136.772,18.637l14.225,3.908l-5.871,13.534
	C371.516,456.764,315.913,499.106,256,499.106z"/>
<g>
	<path style="fill:#573A32;" d="M418.065,25.045C366.583,8.431,312.055,0,256,0S145.417,8.431,93.935,25.045
		c-10.607,3.43-17.792,13.303-17.792,24.457c0,0,0,224.794,0,231.253C76.143,408.26,156.826,512,256,512
		s179.857-103.74,179.857-231.253c0-6.46,0-231.253,0-231.253C435.857,38.349,428.672,28.476,418.065,25.045z M256,486.306
		c-57.054,0-106.743-41.421-133.402-102.844c41.327-11.349,86.076-18.125,133.402-18.125c47.334,0,92.058,6.818,133.376,18.176
		C362.709,444.902,313.037,486.306,256,486.306z M398.438,359.347C352.759,346.573,305.05,339.644,256,339.644
		s-96.751,6.955-142.43,19.738c-7.535-24.235-11.733-50.773-11.733-78.635l0,0c2.645,0,5.308-0.41,7.893-1.246
		c46.37-14.967,95.582-22.554,146.27-22.554c50.688,0,99.9,7.586,146.27,22.562c2.577,0.836,5.248,1.246,7.893,1.246l0,0
		C410.163,308.599,405.965,335.121,398.438,359.347z M410.163,255.053c-46.771-15.104-98.91-23.799-154.163-23.799
		s-107.392,8.704-154.163,23.808V49.502c46.78-15.104,98.91-23.808,154.163-23.808s107.392,8.704,154.163,23.808V255.053z"/>
	<path style="fill:#573A32;" d="M217.455,75.196v12.851h-12.851c-14.191,0-25.694,11.503-25.694,25.694v25.694
		c0,14.191,11.503,25.694,25.694,25.694h12.851v12.843c0,14.191,11.503,25.694,25.694,25.694h25.694
		c14.191,0,25.694-11.503,25.694-25.694v-12.843h12.851c14.191,0,25.694-11.503,25.694-25.694v-25.694
		c0-14.191-11.503-25.694-25.694-25.694h-12.851V75.196c0-14.191-11.503-25.694-25.694-25.694h-25.694
		C228.958,49.502,217.455,61.005,217.455,75.196z M307.388,113.732v25.694h-38.545v38.545h-25.694v-38.537h-38.545v-25.694h38.545
		V75.196h25.694v38.545h38.545V113.732z"/>
</g>
</svg>