<?xml version="1.0" encoding="iso-8859-1"?>
<!-- Uploaded to: SVG Repo, www.svgrepo.com, Generator: SVG Repo Mixer Tools -->
<svg height="800px" width="800px" version="1.1" id="Layer_1" xmlns="http://www.w3.org/2000/svg" xmlns:xlink="http://www.w3.org/1999/xlink" 
	 viewBox="0 0 512 512" xml:space="preserve">
<path style="fill:#FFB7B2;" d="M12.67,499.2v-64c-0.137-59.938,8.405-96.495,26.88-115.012c9.335-9.361,21.171-14.097,35.183-14.097
	c20.113,0,41.771,9.557,64.7,19.678c22.093,9.754,44.937,19.831,64.299,19.831c51.874,0,65.818-53.325,81.178-134.673
	C297.914,142.054,312.651,64,381.993,64c48.384,0,80.922,11.913,99.465,36.437c31.829,42.095,14.763,115.371-5.444,186.812
	c-22.519,79.616-71.313,174.524-175.855,174.524c-23.561,0-48.913-4.89-75.349-14.541c-25.131-9.173-49.596-21.811-71.177-32.947
	c-27.597-14.251-53.666-27.716-69.734-27.716c-6.033,0-20.156,0-20.156,48.64v64H12.67V499.2z"/>
<path style="fill:#FFCFCC;" d="M279.439,160.145c-47.898-25.626-72.585-69.453-75.469-133.965l-0.597-13.38h51.089l0.58,12.194
	c2.108,44.279,15.548,70.554,44.919,87.825l9.276,5.453l-3.772,10.078c-2.739,7.287-5.308,15.334-7.646,23.893l-4.233,15.479
	L279.439,160.145z"/>
<path style="fill:#573A32;" d="M381.993,51.2c-38.212,0-61.815,20.096-77.585,48.64c-24.329-15.966-37.009-38.187-37.009-87.04
	c0-7.074-5.7-12.8-12.732-12.8H203.74c-7.031,0-12.732,5.726-12.732,12.8c0,84.506,32.691,134.613,88.294,161.476
	c-2.5,11.571-4.727,23.134-6.827,34.253C257.876,285.85,245.963,332.8,203.732,332.8c-16.717,0-38.332-9.54-59.23-18.765
	c-23.108-10.197-47.01-20.745-69.76-20.745c-17.451,0-32.247,5.99-43.964,17.801C9.667,332.356-0.138,370.594,0.007,435.2v64
	c0,7.074,5.7,12.8,12.732,12.8h50.935c7.04,0,12.732-5.726,12.732-12.8v-64c0-27.793,5.043-34.842,5.837-35.772
	c0.017,0,0.034,0.009,0.068,0.009c0.196,0,0.734-0.068,1.579-0.068l0,0c13.022,0,38.921,13.38,63.966,26.308
	c21.914,11.315,46.754,24.141,72.644,33.587c27.81,10.155,54.605,15.3,79.642,15.3c62.063,0,145.067-31.889,188.032-183.799
	c21.931-77.534,38.707-151.023,3.499-197.879C470.612,64.836,434.729,51.2,381.993,51.2z M216.754,25.6h25.506
	c2.466,51.746,20.258,80.043,51.217,98.253c-3.021,8.064-5.658,16.435-8.004,25.011C244.163,126.754,219.604,89.387,216.754,25.6z
	 M463.691,283.759C428.525,408.098,366.01,448.964,300.15,448.964c-23.595,0-47.599-5.239-70.955-13.764
	c-58.24-21.257-112.324-61.431-145.297-61.44c-20.599,0-32.964,15.676-32.964,61.44v51.2H25.47v-51.2
	c-0.205-91.017,20.275-116.309,49.263-116.309c36.258,0,86.554,39.509,128.998,39.509c130.074,0,58.359-281.6,178.261-281.6
	C508.568,76.8,498.311,161.365,463.691,283.759z"/>
</svg>