<?xml version="1.0" encoding="iso-8859-1"?>
<!-- Uploaded to: SVG Repo, www.svgrepo.com, Generator: SVG Repo Mixer Tools -->
<svg version="1.1" id="Layer_1" xmlns="http://www.w3.org/2000/svg" xmlns:xlink="http://www.w3.org/1999/xlink" 
	 viewBox="0 0 512.009 512.009" xml:space="preserve">
<rect x="121.135" y="323.718" transform="matrix(0.7071 -0.7071 0.7071 0.7071 -204.6502 215.1646)" style="fill:#919CB0;" width="72.533" height="61.798"/>
<polygon style="fill:#D3D7DF;" points="203.345,349.446 203.43,349.353 170.33,316.26 161.19,307.292 135.505,281.606 
	349.35,67.753 444.258,162.66 230.404,376.506 "/>
<path style="fill:#573A32;" d="M405.858,3.753c-5.001-5.001-13.099-5.001-18.099,0s-5.001,13.099,0,18.099l42.146,42.155
	l-33.101,33.101l-67.746-67.746c-5.001-5.001-13.099-5.001-18.099,0c-5.001,5.001-5.001,13.099,0,18.099l20.301,20.301
	L135.505,263.507c-10.001,10.001-10.001,26.206,0,36.207l7.492,7.492l-33.101,33.101c-10.001,10.001-10.001,26.206,0,36.207
	l3.746,3.746L3.75,490.153c-5.001,5.001-5.001,13.099,0,18.099c2.5,2.509,5.777,3.755,9.054,3.755s6.554-1.246,9.054-3.746
	l109.901-109.901l3.746,3.755c4.992,4.992,11.546,7.492,18.099,7.492c6.554,0,13.107-2.5,18.099-7.501l33.101-33.092l7.501,7.501
	c4.992,4.992,11.546,7.492,18.099,7.492c6.554,0,13.107-2.5,18.099-7.501L444.25,180.759l20.301,20.301
	c2.5,2.5,5.777,3.746,9.054,3.746c3.277,0,6.554-1.246,9.054-3.746c5.001-5.001,5.001-13.099,0-18.099l-67.755-67.755l33.101-33.101
	l42.146,42.146c2.5,2.509,5.777,3.755,9.054,3.755s6.554-1.246,9.054-3.746c5-5.001,5-13.099,0-18.099L405.858,3.753z
	 M153.604,384.006l-25.6-25.6l33.186-33.186l25.6,25.6L153.604,384.006z M426.15,162.66L230.404,358.406l-8.96-8.96l0.085-0.085
	l-51.2-51.2l-0.085,0.085l-16.64-16.64L349.35,85.86L426.15,162.66z"/>
</svg>