<?xml version="1.0" encoding="iso-8859-1"?>
<!-- Uploaded to: SVG Repo, www.svgrepo.com, Generator: SVG Repo Mixer Tools -->
<svg height="800px" width="800px" version="1.1" id="Layer_1" xmlns="http://www.w3.org/2000/svg" xmlns:xlink="http://www.w3.org/1999/xlink" 
	 viewBox="0 0 512 512" xml:space="preserve">
<path style="fill:#E9EBEF;" d="M332.8,499.2c-21.333,0-21.333-25.771-21.333-72.533c0-79.881-4.284-157.867-55.467-157.867
	s-55.467,77.986-55.467,157.867c0,46.763,0,72.533-21.333,72.533c-53.623,0-119.159-244.855-119.159-365.739
	c0-35.021,4.599-62.822,13.662-82.645C88.064,19.388,111.155,12.8,128,12.8c27.682,0,48.196,6.844,68.045,13.457
	C214.784,32.503,232.482,38.4,256,38.4s41.216-5.897,59.955-12.143C335.804,19.644,356.318,12.8,384,12.8
	c16.845,0,39.936,6.588,54.298,38.016c9.062,19.814,13.662,47.625,13.662,82.645C451.96,254.345,386.423,499.2,332.8,499.2z"/>
<path style="fill:#573A32;" d="M179.2,512c34.133,0,34.133-37.658,34.133-85.333c0-70.187,3.294-145.067,42.667-145.067
	s42.667,74.88,42.667,145.067c0,47.676,0,85.333,34.133,85.333c12.604,0,46.089,0,90.786-143.386
	c25.779-82.697,41.173-170.607,41.173-235.162c0-36.864-4.983-66.458-14.814-87.962C436.531,16.154,413.107,0,384,0
	c-29.756,0-52.25,7.501-72.098,14.114C293.41,20.275,277.444,25.6,256,25.6s-37.41-5.325-55.902-11.486
	C180.25,7.501,157.756,0,128,0C98.893,0,75.469,16.154,62.063,45.491c-9.83,21.504-14.822,51.098-14.822,87.962
	c0,64.555,15.394,152.465,41.173,235.162C133.111,512,166.596,512,179.2,512z M128,25.6c51.2,0,76.8,25.6,128,25.6
	s76.8-25.6,128-25.6c128,0,0,460.8-51.2,460.8c-25.6,0,25.6-230.4-76.8-230.4s-51.2,230.4-76.8,230.4C128,486.4,0,25.6,128,25.6z"/>
</svg>